<svg xmlns="http://www.w3.org/2000/svg" width="748" height="768" viewBox="-2.75 -2.75 97.2 99.75"><path d="M53.2 0l-1.72 27.7c3.9.14 5.3.42 9.15 1.02l.87-7.11 4.93 8.12 5.4-6.99 2.2 9.65 6.67-6.68 1.8 9.58 9.2-2.66-3.94-26-10.85 10.83-.9-14.9L61.86 18.7l2.17-17.66C61.07.45 56.5.18 53.2 0zm-4.6.04c-6.09-.07-14.46.6-20.11 1.92l3 19.42-9.02-3.89L27.5 6.6 18.2 3.13l-5.08 11.62-3.32-7.4A73 73 0 000 12l13.1 25.34a58.85 58.85 0 017.57-3.8l-3.42-8.12 9.85 5.15L31.58 22l1.17 7.6a78.88 78.88 0 0117.1-2l.23-7.08c-2.55-.04-7.3.15-9.74.7l-.31-3.84c2.93-.65 5.53-.7 7.63-.76l.04-5.84c-2.26-.14-5.67.13-8.33.51l-.33-3.76a67 67 0 019.49-.7l.07-6.8z" fill="#36393a"/><path d="M24.1 47.4l24.77 46.85L73.64 47.4a43.2 43.2 0 00-24.77-7.9 43.2 43.2 0 00-24.76 7.9" fill="#d71a1d"/></svg>
